# Wavefront OBJ file
# Exported by Maverick Model 3D 1.3.11
# Sat Jul 27 17:00:57 2019

mtllib invade.mtl

# 10 Vertices
v 0.109039 1.816737 15.289654
v -12.930656 1.816737 5.326681
v -4.418404 1.798477 -18.577234
v 3.708405 1.798477 -18.71258
v 12.082456 1.816736 5.925355
v 0.109039 12.222418 12.189858
v 12.082456 1.816736 5.925355
v -4.418404 1.798477 -18.577234
v 3.708405 1.798477 -18.71258
v 0.10904 12.312799 12.369922

# 24 Texture Coordinates
vt 0.12416 0.581713
vt 0.061866 0.522047
vt 0.102531 0.378892
vt 0.12416 0.581713
vt 0.102531 0.378892
vt 0.141355 0.378081
vt 0.12416 0.581713
vt 0.141355 0.378081
vt 0.181361 0.525632
vt 0.120048 0.338355
vt 0.120048 0.412429
vt 0.064972 0.412429
vt 0.064972 0.412429
vt 0.064972 0.338355
vt 0.120048 0.338355
vt 0.158192 0.703708
vt 0.415861 0.884919
vt 0.326397 0.70339
vt 0.258665 0.874427
vt 0.545198 0.69241
vt 0.3448 0.69209
vt 0.909827 0.246688
vt 0.956996 0.06947
vt 0.850496 0.06947

# 24 Vertex Normals
vn 0.000003 -1.0 0.000575
vn -0.000459 -1.0 0.000601
vn -0.000225 -1.0 0.000569
vn 0.000003 -1.0 0.000575
vn -0.000225 -1.0 0.000569
vn 0.000233 -1.0 0.000562
vn 0.000003 -1.0 0.000575
vn 0.000233 -1.0 0.000562
vn 0.000458 -1.0 0.000585
vn -0.278952 0.660152 0.697413
vn -0.689912 0.633406 0.350453
vn 0.005581 0.285492 0.958365
vn 0.711962 0.612974 0.342598
vn 0.306864 0.64808 0.697012
vn 0.005581 0.285492 0.958365
vn -0.689912 0.633406 0.350453
vn -0.284636 0.938726 0.194358
vn -0.546848 0.814121 -0.195356
vn 0.321547 0.927825 0.189073
vn 0.711962 0.612974 0.342598
vn 0.581766 0.788808 -0.198318
vn -0.005346 0.947069 -0.320985
vn -0.005346 0.947069 -0.320985
vn -0.005346 0.947069 -0.320985

# front2, 1 grouped triangles

usemtl invade
o front2
g front2

f 10/22/22 4/23/23 3/24/24
# front1, 1 grouped triangles

usemtl invade
o front1
g front1

f 6/19/19 7/20/20 9/21/21
# front3, 1 grouped triangles

usemtl invade
o front3
g front3

f 2/16/16 6/17/17 8/18/18
# bottom, 3 grouped triangles

usemtl invade
o bottom
g bottom

f 1/1/1 2/2/2 3/3/3
f 1/4/4 3/5/5 4/6/6
f 1/7/7 4/8/8 5/9/9
# back, 2 grouped triangles

usemtl invade
o back
g back

f 6/10/10 2/11/11 1/12/12
f 7/13/13 6/14/14 1/15/15
